<svg xmlns="http://www.w3.org/2000/svg" viewBox="0 0 64 64"><path d="M30.26 51.92 A20 20 0 0 1 20.53 15.62" stroke="#1F3864" stroke-width="1.5" fill="none" stroke-linecap="round"/><path d="M33.74 51.92 A20 20 0 0 0 43.47 15.62" stroke="#1F3864" stroke-width="1.5" fill="none" stroke-linecap="round"/><path d="M0 0 Q3.8 -5.3 0 -13 Q-3.8 -5.3 0 0" fill="#1F3864" transform="translate(28.53 51.70) rotate(250)"/><path d="M0 0 Q3.8 -5.3 0 -13 Q-3.8 -5.3 0 0" fill="#1F3864" transform="translate(35.47 51.70) rotate(-250)"/><path d="M0 0 Q3.8 -5.3 0 -13 Q-3.8 -5.3 0 0" fill="#1F3864" transform="translate(22.00 49.32) rotate(270)"/><path d="M0 0 Q3.8 -5.3 0 -13 Q-3.8 -5.3 0 0" fill="#1F3864" transform="translate(42.00 49.32) rotate(-270)"/><path d="M0 0 Q3.8 -5.3 0 -13 Q-3.8 -5.3 0 0" fill="#1F3864" transform="translate(16.68 44.86) rotate(290)"/><path d="M0 0 Q3.8 -5.3 0 -13 Q-3.8 -5.3 0 0" fill="#1F3864" transform="translate(47.32 44.86) rotate(-290)"/><path d="M0 0 Q3.8 -5.3 0 -13 Q-3.8 -5.3 0 0" fill="#1F3864" transform="translate(13.21 38.84) rotate(310)"/><path d="M0 0 Q3.8 -5.3 0 -13 Q-3.8 -5.3 0 0" fill="#1F3864" transform="translate(50.79 38.84) rotate(-310)"/><path d="M0 0 Q3.8 -5.3 0 -13 Q-3.8 -5.3 0 0" fill="#1F3864" transform="translate(12.00 32.00) rotate(330)"/><path d="M0 0 Q3.8 -5.3 0 -13 Q-3.8 -5.3 0 0" fill="#1F3864" transform="translate(52.00 32.00) rotate(-330)"/><path d="M0 0 Q3.8 -5.3 0 -13 Q-3.8 -5.3 0 0" fill="#1F3864" transform="translate(13.21 25.16) rotate(350)"/><path d="M0 0 Q3.8 -5.3 0 -13 Q-3.8 -5.3 0 0" fill="#1F3864" transform="translate(50.79 25.16) rotate(-350)"/><path d="M0 0 Q3.8 -5.3 0 -13 Q-3.8 -5.3 0 0" fill="#1F3864" transform="translate(16.68 19.14) rotate(370)"/><path d="M0 0 Q3.8 -5.3 0 -13 Q-3.8 -5.3 0 0" fill="#1F3864" transform="translate(47.32 19.14) rotate(-370)"/></svg>
